<?xml version="1.0" encoding="UTF-8"?>
<svg id="Capa_1" data-name="Capa 1" xmlns="http://www.w3.org/2000/svg" width="200" height="71" viewBox="0 0 200 71">
  <path d="M19.78,4.9C14.18,10.48,8.53,15.89,2.82,21.12v19.17H25.67v4.42c-4.42,4.18-8.85,8.36-13.27,12.53v-9.58H2.82v19.17h14.75c5.9-5.9,11.8-11.8,17.69-17.69V30.71H12.4v-5.16c4.42-4.18,8.85-8.36,13.27-12.53v9.58h9.58V4.17h-14.75c-.25,.25-.49,.49-.74,.74Z" style="fill: #f1f607;"/>
  <g>
    <path d="M54.14,30.96v18.29h-4.35V30.96h4.35Zm2.39,18.29h-4.87v-3.7h4.68c1.06,0,1.96-.18,2.68-.55,.72-.37,1.27-.95,1.63-1.76,.36-.8,.55-1.85,.55-3.14s-.19-2.34-.56-3.14c-.37-.8-.92-1.39-1.65-1.76-.73-.37-1.63-.55-2.71-.55h-4.69v-3.7h4.95c1.86,0,3.46,.37,4.81,1.11s2.39,1.79,3.12,3.16,1.1,3,1.1,4.89-.36,3.52-1.09,4.89c-.73,1.37-1.77,2.42-3.12,3.16-1.35,.73-2.96,1.1-4.81,1.1Z" style="fill: #eaeaea;"/>
    <path d="M74.21,49.53c-1.41,0-2.63-.29-3.66-.88-1.03-.59-1.83-1.4-2.38-2.46s-.83-2.28-.83-3.68,.28-2.63,.83-3.68c.56-1.05,1.35-1.87,2.38-2.46s2.25-.88,3.66-.88,2.64,.29,3.66,.88,1.82,1.4,2.38,2.46c.56,1.05,.83,2.28,.83,3.68s-.28,2.63-.83,3.68c-.56,1.05-1.35,1.87-2.38,2.46-1.03,.59-2.25,.88-3.66,.88Zm0-3.3c.54,0,1-.15,1.38-.46s.66-.74,.86-1.3,.29-1.21,.29-1.96-.1-1.42-.29-1.97-.48-.98-.86-1.28-.83-.45-1.38-.45-.99,.15-1.37,.45c-.38,.3-.67,.73-.87,1.28s-.29,1.21-.29,1.97,.1,1.41,.29,1.96,.49,.99,.87,1.3c.38,.31,.84,.46,1.37,.46Z" style="fill: #eaeaea;"/>
    <path d="M85.78,49.26l-4-13.55h4.47l1.01,4.56c.2,.95,.41,1.96,.63,3.03,.23,1.07,.43,2.21,.62,3.43h-.47c.2-1.21,.43-2.35,.69-3.43,.25-1.07,.49-2.08,.71-3.03l1.08-4.56h3.81l1.06,4.56c.21,.95,.44,1.96,.69,3.03,.25,1.07,.48,2.21,.69,3.43h-.45c.19-1.21,.39-2.35,.6-3.42,.21-1.07,.41-2.08,.61-3.04l.99-4.56h4.54l-4.03,13.55h-4.37l-1.41-4.91c-.14-.47-.28-1.02-.41-1.62-.13-.61-.27-1.22-.39-1.85s-.26-1.2-.4-1.71h.72c-.13,.52-.26,1.09-.39,1.71s-.26,1.24-.39,1.85-.27,1.15-.42,1.62l-1.42,4.91h-4.36Z" style="fill: #eaeaea;"/>
    <path d="M108.85,41.6v7.66h-4.27v-13.55h4.06l.06,3.46h-.28c.35-1.11,.89-1.99,1.61-2.66,.72-.67,1.7-1,2.92-1,.96,0,1.79,.21,2.49,.63,.7,.42,1.24,1.02,1.63,1.79,.38,.77,.58,1.68,.58,2.72v8.61h-4.27v-7.77c0-.77-.19-1.37-.58-1.8-.39-.43-.93-.64-1.63-.64-.46,0-.86,.1-1.21,.3-.35,.2-.62,.49-.81,.87-.19,.38-.29,.84-.29,1.39Z" style="fill: #eaeaea;"/>
    <path d="M124.64,30.96v18.29h-4.27V30.96h4.27Z" style="fill: #eaeaea;"/>
    <path d="M133.72,49.53c-1.41,0-2.63-.29-3.66-.88-1.03-.59-1.83-1.4-2.38-2.46s-.83-2.28-.83-3.68,.28-2.63,.83-3.68c.56-1.05,1.35-1.87,2.38-2.46s2.25-.88,3.66-.88,2.64,.29,3.66,.88,1.82,1.4,2.38,2.46c.56,1.05,.83,2.28,.83,3.68s-.28,2.63-.83,3.68c-.56,1.05-1.35,1.87-2.38,2.46-1.03,.59-2.25,.88-3.66,.88Zm0-3.3c.54,0,1-.15,1.38-.46s.66-.74,.86-1.3,.29-1.21,.29-1.96-.1-1.42-.29-1.97-.48-.98-.86-1.28-.83-.45-1.38-.45-.99,.15-1.37,.45c-.38,.3-.67,.73-.87,1.28s-.29,1.21-.29,1.97,.1,1.41,.29,1.96,.49,.99,.87,1.3c.38,.31,.84,.46,1.37,.46Z" style="fill: #eaeaea;"/>
    <path d="M146.89,49.5c-.88,0-1.65-.15-2.33-.45-.68-.3-1.21-.74-1.6-1.33-.39-.59-.58-1.33-.58-2.23,0-.75,.13-1.39,.4-1.9,.27-.52,.63-.94,1.11-1.26s1.01-.57,1.63-.74c.61-.17,1.27-.29,1.96-.34,.78-.07,1.4-.14,1.88-.21,.47-.08,.82-.19,1.03-.34s.32-.36,.32-.63v-.06c0-.3-.07-.56-.22-.78-.15-.22-.36-.38-.63-.5-.27-.11-.61-.17-1-.17s-.74,.06-1.04,.18c-.3,.12-.54,.28-.74,.5-.19,.21-.32,.46-.39,.75l-3.89-.39c.16-.82,.49-1.53,1.01-2.14,.52-.61,1.21-1.08,2.07-1.42,.86-.34,1.87-.5,3.05-.5,.87,0,1.67,.1,2.41,.3,.74,.2,1.38,.5,1.92,.88,.54,.39,.97,.87,1.26,1.43,.3,.56,.45,1.22,.45,1.95v9.18h-4.05v-1.9h-.1c-.25,.47-.55,.86-.93,1.18-.37,.32-.81,.56-1.31,.72-.5,.16-1.06,.25-1.69,.25Zm1.3-2.82c.47,0,.91-.1,1.3-.29,.39-.19,.7-.46,.92-.8,.23-.34,.34-.73,.34-1.17v-1.29c-.11,.07-.26,.12-.44,.18-.18,.05-.38,.1-.59,.15-.21,.05-.43,.09-.66,.13-.23,.04-.44,.07-.66,.1-.41,.06-.76,.16-1.06,.29-.29,.14-.52,.32-.68,.53-.16,.21-.23,.47-.23,.77s.08,.55,.23,.76,.36,.37,.62,.47,.57,.16,.91,.16Z" style="fill: #eaeaea;"/>
    <path d="M162.68,49.48c-1.03,0-1.97-.27-2.81-.8-.84-.54-1.5-1.32-1.98-2.36s-.72-2.31-.72-3.82,.25-2.84,.75-3.87,1.17-1.81,2-2.33c.84-.52,1.75-.78,2.74-.78,.69,0,1.28,.11,1.79,.34,.5,.23,.93,.52,1.26,.89,.34,.37,.6,.77,.79,1.19h.09v-6.96h4.26v18.29h-4.21v-2.17h-.12c-.19,.43-.45,.83-.8,1.19-.34,.36-.77,.65-1.26,.87-.5,.22-1.09,.33-1.77,.33Zm1.41-3.35c.54,0,1-.15,1.39-.45,.39-.3,.69-.73,.9-1.27,.21-.54,.31-1.18,.31-1.92s-.1-1.39-.31-1.93c-.21-.54-.51-.96-.9-1.25-.39-.29-.85-.44-1.39-.44s-1.01,.15-1.39,.45c-.38,.3-.67,.72-.87,1.26-.2,.54-.29,1.18-.29,1.92s.1,1.38,.29,1.92c.2,.54,.49,.97,.87,1.27,.38,.3,.85,.45,1.39,.45Z" style="fill: #eaeaea;"/>
    <path d="M179.91,49.53c-1.41,0-2.63-.29-3.66-.86s-1.82-1.38-2.38-2.43c-.55-1.05-.83-2.29-.83-3.72s.28-2.61,.83-3.66c.55-1.05,1.33-1.87,2.35-2.46,1.01-.59,2.19-.88,3.54-.88,.97,0,1.85,.15,2.66,.46,.81,.31,1.51,.76,2.1,1.35,.59,.59,1.05,1.32,1.38,2.17s.49,1.84,.49,2.94v1.09h-11.86v-2.5h9.83l-1.99,.58c0-.62-.1-1.16-.29-1.6s-.48-.79-.86-1.03c-.38-.24-.84-.36-1.4-.36s-1.02,.12-1.4,.36c-.38,.24-.68,.58-.88,1.01-.2,.43-.3,.95-.3,1.55v1.8c0,.67,.11,1.24,.34,1.7,.23,.46,.55,.81,.96,1.04,.42,.23,.9,.35,1.46,.35,.39,0,.75-.06,1.07-.17s.59-.27,.82-.48,.39-.46,.51-.77l3.81,.49c-.21,.8-.6,1.5-1.17,2.11s-1.29,1.07-2.15,1.41c-.87,.34-1.85,.5-2.96,.5Z" style="fill: #eaeaea;"/>
    <path d="M188.51,49.26v-13.55h4.14v2.46h.12c.25-.89,.65-1.55,1.2-1.97,.56-.42,1.22-.63,2-.63,.2,0,.41,.01,.62,.03,.21,.02,.4,.05,.58,.09v3.67c-.2-.06-.46-.1-.79-.13-.33-.03-.63-.04-.9-.04-.52,0-.99,.11-1.4,.34-.41,.23-.73,.55-.96,.96-.23,.41-.34,.9-.34,1.47v7.31h-4.27Z" style="fill: #eaeaea;"/>
  </g>
  <g>
    <path d="M55.3,24c-1.55,0-2.89-.23-4.02-.7-1.13-.47-2.01-1.17-2.63-2.11-.62-.94-.94-2.1-.96-3.49h4.16c.04,.59,.2,1.08,.49,1.49,.29,.4,.68,.71,1.18,.91,.5,.21,1.08,.31,1.74,.31,.61,0,1.13-.08,1.57-.25,.44-.17,.78-.4,1.02-.69,.24-.29,.36-.63,.36-1.02,0-.35-.11-.65-.33-.9-.22-.25-.55-.47-.99-.66-.44-.19-1.01-.36-1.69-.52l-1.92-.43c-1.63-.36-2.89-.96-3.79-1.79-.9-.83-1.35-1.93-1.35-3.3,0-1.14,.31-2.13,.91-2.98s1.45-1.51,2.52-1.98c1.07-.47,2.3-.71,3.7-.71s2.66,.24,3.7,.72c1.04,.48,1.85,1.15,2.43,2.01s.88,1.88,.9,3.04h-4.15c-.06-.69-.33-1.22-.83-1.61-.5-.38-1.18-.58-2.06-.58-.57,0-1.05,.08-1.45,.23-.4,.16-.7,.37-.91,.64-.2,.27-.31,.59-.31,.94s.11,.67,.33,.92c.22,.25,.53,.47,.95,.64,.41,.18,.91,.33,1.48,.45l1.58,.36c.92,.2,1.73,.45,2.43,.77,.7,.32,1.29,.7,1.77,1.14,.48,.44,.84,.96,1.09,1.54,.25,.59,.37,1.24,.37,1.97,0,1.16-.29,2.17-.87,3.01s-1.42,1.49-2.5,1.93c-1.09,.45-2.39,.67-3.92,.67Z" style="fill: #eaeaea;"/>
    <path d="M64.82,28.88V10.19h4.22v2.21h.12c.2-.43,.46-.82,.8-1.18,.34-.36,.75-.66,1.26-.88,.5-.22,1.1-.34,1.8-.34,.99,0,1.9,.26,2.73,.78,.83,.52,1.5,1.3,2,2.33s.75,2.33,.75,3.87-.24,2.78-.73,3.82c-.49,1.04-1.15,1.83-1.98,2.36-.83,.54-1.77,.8-2.82,.8-.66,0-1.25-.11-1.75-.33-.5-.22-.93-.51-1.26-.87-.34-.36-.6-.75-.79-1.18h-.09v7.29h-4.27Zm6.77-8.26c.55,0,1.01-.15,1.39-.45,.38-.3,.67-.73,.87-1.27,.2-.54,.3-1.18,.3-1.92s-.1-1.38-.3-1.92c-.2-.54-.49-.96-.87-1.26-.38-.3-.84-.45-1.39-.45s-1.01,.15-1.4,.44-.69,.71-.9,1.25c-.21,.54-.31,1.18-.31,1.93s.11,1.38,.32,1.92c.21,.54,.51,.97,.9,1.27,.39,.3,.85,.45,1.39,.45Z" style="fill: #eaeaea;"/>
    <path d="M84.97,5.45V23.74h-4.27V5.45h4.27Z" style="fill: #eaeaea;"/>
    <path d="M89.83,8.65c-.63,0-1.16-.2-1.6-.6-.43-.4-.65-.89-.65-1.47s.22-1.08,.65-1.49c.43-.4,.97-.6,1.6-.6s1.15,.2,1.58,.6c.43,.4,.65,.9,.65,1.49s-.22,1.07-.65,1.47c-.43,.4-.96,.6-1.58,.6Zm-2.14,15.09V10.19h4.27v13.55h-4.27Z" style="fill: #eaeaea;"/>
    <path d="M101.02,24.01c-1.42,0-2.64-.29-3.66-.88s-1.81-1.41-2.36-2.46c-.55-1.05-.83-2.27-.83-3.66s.28-2.63,.83-3.68c.55-1.05,1.34-1.87,2.36-2.46s2.24-.88,3.66-.88c.88,0,1.69,.12,2.43,.35,.73,.23,1.37,.57,1.93,1.01,.55,.44,1,.96,1.33,1.57s.55,1.3,.64,2.06l-3.98,.52c-.06-.35-.15-.66-.28-.93s-.29-.5-.48-.69c-.19-.19-.42-.34-.67-.44-.25-.1-.54-.15-.85-.15-.55,0-1.01,.15-1.39,.44-.38,.29-.67,.72-.87,1.27-.2,.55-.3,1.22-.3,2s.1,1.42,.3,1.98c.2,.56,.49,.99,.87,1.3,.38,.3,.85,.45,1.39,.45,.31,0,.6-.05,.85-.15,.26-.1,.49-.25,.68-.45s.36-.44,.49-.72c.13-.29,.22-.61,.28-.96l3.98,.5c-.08,.77-.29,1.47-.63,2.09-.34,.62-.78,1.16-1.33,1.6-.55,.45-1.2,.79-1.94,1.03-.74,.24-1.55,.36-2.44,.36Z" style="fill: #eaeaea;"/>
    <path d="M115.85,24.01c-1.41,0-2.63-.29-3.66-.86s-1.82-1.38-2.38-2.43c-.55-1.05-.83-2.29-.83-3.72s.28-2.61,.83-3.66c.55-1.05,1.33-1.87,2.35-2.46,1.01-.59,2.19-.88,3.54-.88,.97,0,1.85,.15,2.66,.46,.81,.31,1.51,.76,2.1,1.35,.59,.59,1.05,1.32,1.38,2.17s.49,1.84,.49,2.94v1.09h-11.86v-2.5h9.83l-1.99,.58c0-.62-.1-1.16-.29-1.6s-.48-.79-.86-1.03c-.38-.24-.84-.36-1.4-.36s-1.02,.12-1.4,.36c-.38,.24-.68,.58-.88,1.01-.2,.43-.3,.95-.3,1.55v1.8c0,.67,.11,1.24,.34,1.7,.23,.46,.55,.81,.96,1.04,.42,.23,.9,.35,1.46,.35,.39,0,.75-.06,1.07-.17s.59-.27,.82-.48,.39-.46,.51-.77l3.81,.49c-.21,.8-.6,1.5-1.17,2.11s-1.29,1.07-2.15,1.41c-.87,.34-1.85,.5-2.96,.5Z" style="fill: #eaeaea;"/>
  </g>
</svg>